<svg width="41" height="41" viewBox="0 0 41 41" fill="none" xmlns="http://www.w3.org/2000/svg">
<path d="M26.6498 18.45C26.6498 20.0811 26.0019 21.6454 24.8485 22.7987C23.6952 23.9521 22.1309 24.6 20.4998 24.6C18.8687 24.6 17.3045 23.9521 16.1511 22.7987C14.9978 21.6454 14.3498 20.0811 14.3498 18.45C14.3498 16.8189 14.9978 15.2546 16.1511 14.1013C17.3045 12.9479 18.8687 12.3 20.4998 12.3C22.1309 12.3 23.6952 12.9479 24.8485 14.1013C26.0019 15.2546 26.6498 16.8189 26.6498 18.45ZM24.5998 18.45C24.5998 17.3626 24.1679 16.3198 23.399 15.5509C22.6301 14.782 21.5872 14.35 20.4998 14.35C19.4124 14.35 18.3696 14.782 17.6007 15.5509C16.8318 16.3198 16.3998 17.3626 16.3998 18.45C16.3998 19.5374 16.8318 20.5802 17.6007 21.3491C18.3696 22.118 19.4124 22.55 20.4998 22.55C21.5872 22.55 22.6301 22.118 23.399 21.3491C24.1679 20.5802 24.5998 19.5374 24.5998 18.45ZM30.6473 28.6077C33.3388 25.9149 34.8507 22.2634 34.8507 18.4561C34.8507 14.6489 33.3388 10.9974 30.6473 8.30455C29.3148 6.97187 27.7328 5.91473 25.9917 5.19348C24.2505 4.47224 22.3844 4.10101 20.4998 4.10101C18.6152 4.10101 16.7491 4.47224 15.008 5.19348C13.2669 5.91473 11.6849 6.97187 10.3523 8.30455C7.66086 10.9974 6.14893 14.6489 6.14893 18.4561C6.14893 22.2634 7.66086 25.9149 10.3523 28.6077L13.4704 31.6807L17.6585 35.7499L17.9312 35.9918C19.5199 37.2792 21.8467 37.1972 23.3432 35.7499L28.3349 30.8914L30.6473 28.6077ZM11.7976 9.7498C12.9399 8.60619 14.2965 7.69895 15.7896 7.07996C17.2828 6.46098 18.8834 6.14237 20.4998 6.14237C22.1162 6.14237 23.7168 6.46098 25.21 7.07996C26.7032 7.69895 28.0597 8.60619 29.2021 9.7498C31.4453 11.996 32.735 15.0213 32.8022 18.1951C32.8694 21.3689 31.709 24.4462 29.5629 26.7853L29.2021 27.1625L26.494 29.8357L21.9225 34.2821L21.7298 34.4461C21.3747 34.712 20.943 34.8555 20.4995 34.8551C20.0559 34.8548 19.6244 34.7105 19.2698 34.4441L19.0792 34.2801L12.9702 28.3248L11.7976 27.1625L11.4368 26.7873C9.29064 24.4482 8.13022 21.371 8.19744 18.1972C8.26466 15.0234 9.55433 11.996 11.7976 9.7498Z" fill="#8A8888"/>
</svg>
