<svg width="72" height="56" viewBox="0 0 72 56" fill="none" xmlns="http://www.w3.org/2000/svg">
<path d="M12.6174 55.8821V52.3528C12.6174 50.9996 11.7372 50.1174 10.2285 50.1174C9.4743 50.1174 8.6571 50.3527 8.09131 51.1175C7.6515 50.4703 7.02299 50.1174 6.0801 50.1174C5.45131 50.1174 4.82309 50.2938 4.32 50.9409V50.2351H3V55.8821H4.32V52.7644C4.32 51.7646 4.8858 51.2938 5.76599 51.2938C6.64561 51.2938 7.08599 51.8233 7.08599 52.7644V55.8821H8.40599V52.7644C8.40599 51.7646 9.0342 51.2938 9.8514 51.2938C10.7316 51.2938 11.1714 51.8233 11.1714 52.7644V55.8821H12.6174ZM32.1657 50.2351H30.0288V48.5292H28.7088V50.2351H27.5145V51.3525H28.7085V53.941C28.7085 55.2352 29.2743 55.9997 30.783 55.9997C31.3488 55.9997 31.977 55.8234 32.4174 55.5881L32.04 54.5292C31.6629 54.7644 31.2231 54.8234 30.9087 54.8234C30.2802 54.8234 30.0288 54.4705 30.0288 53.882V51.3525H32.1657V50.2351ZM43.3545 50.1172C42.6003 50.1172 42.0975 50.4703 41.7831 50.9409V50.2351H40.4631V55.8821H41.7831V52.7057C41.7831 51.7646 42.2229 51.2351 43.0401 51.2351C43.2915 51.2351 43.6059 51.2941 43.8573 51.3527L44.2344 50.1764C43.983 50.1174 43.6059 50.1174 43.3545 50.1174M26.4459 50.7059C25.8171 50.294 24.9372 50.1177 23.9943 50.1177C22.4859 50.1177 21.4803 50.8235 21.4803 51.9412C21.4803 52.8825 22.2345 53.4118 23.5545 53.5883L24.183 53.6473C24.8745 53.7647 25.2516 53.9412 25.2516 54.2355C25.2516 54.6471 24.7488 54.9413 23.8686 54.9413C22.9884 54.9413 22.2972 54.6471 21.8571 54.3531L21.2286 55.2942C21.9201 55.7647 22.863 56 23.8056 56C25.5657 56 26.5716 55.2355 26.5716 54.1765C26.5716 53.1765 25.7544 52.647 24.4971 52.4707L23.8686 52.4117C23.3028 52.3528 22.863 52.2354 22.863 51.8825C22.863 51.4706 23.3028 51.2354 23.9943 51.2354C24.7488 51.2354 25.503 51.5293 25.8801 51.7059L26.4459 50.7059ZM61.5204 50.1177C60.7659 50.1177 60.2631 50.4706 59.9487 50.9412V50.2353H58.6287V55.8824H59.9487V52.7059C59.9487 51.7649 60.3888 51.2354 61.2057 51.2354C61.4574 51.2354 61.7718 51.2943 62.0232 51.353L62.4003 50.1767C62.1489 50.1177 61.7718 50.1177 61.5204 50.1177ZM44.6745 53.0589C44.6745 54.7647 45.9315 56 47.8803 56C48.7602 56 49.3887 55.8237 50.0172 55.3531L49.3887 54.3531C48.8859 54.706 48.3831 54.8823 47.8173 54.8823C46.7487 54.8823 45.9945 54.1765 45.9945 53.0589C45.9945 52.0001 46.7487 51.2941 47.8173 51.2354C48.3831 51.2354 48.8859 51.4117 49.3887 51.7649L50.0172 50.7648C49.3887 50.294 48.7602 50.1177 47.8803 50.1177C45.9315 50.1177 44.6745 51.353 44.6745 53.0589ZM56.8689 53.0589V50.2353H55.5489V50.9412C55.1088 50.4119 54.4803 50.1177 53.6631 50.1177C51.966 50.1177 50.646 51.353 50.646 53.0589C50.646 54.7647 51.966 56 53.6631 56C54.543 56 55.1718 55.706 55.5489 55.1766V55.8824H56.8689V53.0589ZM52.0287 53.0589C52.0287 52.0588 52.7202 51.2354 53.8515 51.2354C54.9201 51.2354 55.6746 52.0001 55.6746 53.0589C55.6746 54.0589 54.9201 54.8823 53.8515 54.8823C52.7202 54.8234 52.0287 54.0589 52.0287 53.0589ZM36.2517 50.1177C34.4916 50.1177 33.2343 51.2941 33.2343 53.0589C33.2343 54.8236 34.4913 56 36.3144 56C37.1943 56 38.0745 55.7647 38.766 55.2355L38.1372 54.3531C37.6344 54.706 37.0059 54.9413 36.3774 54.9413C35.5602 54.9413 34.743 54.5884 34.5543 53.5881H39.0174V53.1178C39.0804 51.2941 37.9491 50.1177 36.2517 50.1177ZM36.2514 51.1764C37.0683 51.1764 37.6344 51.6472 37.7598 52.5296H34.617C34.7427 51.7649 35.3085 51.1764 36.2514 51.1764ZM69 53.0589V48H67.68V50.9412C67.2399 50.4119 66.6114 50.1177 65.7942 50.1177C64.0971 50.1177 62.7771 51.353 62.7771 53.0589C62.7771 54.7647 64.0971 56 65.7942 56C66.6744 56 67.3029 55.706 67.68 55.1766V55.8824H69V53.0589ZM64.1601 53.0589C64.1601 52.0588 64.8513 51.2354 65.9829 51.2354C67.0515 51.2354 67.8057 52.0001 67.8057 53.0589C67.8057 54.0589 67.0515 54.8823 65.9829 54.8823C64.8513 54.8234 64.1601 54.0589 64.1601 53.0589ZM20.034 53.0589V50.2353H18.714V50.9412C18.2739 50.4119 17.6454 50.1177 16.8282 50.1177C15.1311 50.1177 13.8111 51.353 13.8111 53.0589C13.8111 54.7647 15.1311 56 16.8282 56C17.7084 56 18.3369 55.706 18.714 55.1766V55.8824H20.034V53.0589ZM15.1311 53.0589C15.1311 52.0588 15.8226 51.2354 16.9539 51.2354C18.0225 51.2354 18.777 52.0001 18.777 53.0589C18.777 54.0589 18.0225 54.8823 16.9539 54.8823C15.8226 54.8234 15.1311 54.0589 15.1311 53.0589Z" fill="black"/>
<path d="M27.526 22.5C27.526 15.3126 30.8661 8.93748 36 4.81238C32.2271 1.81244 27.4643 0 22.2684 0C9.95866 0 0 10.0624 0 22.5C0 34.9376 9.95866 45 22.2681 45C27.464 45 32.2268 43.1876 36 40.1873C30.8661 36.1249 27.526 29.6874 27.526 22.5Z" fill="#EB001B"/>
<path d="M71.9997 22.5C71.9997 34.9374 62.0411 45 49.7318 45C44.5359 45 39.7732 43.1876 36 40.1873C41.1958 36.0625 44.4742 29.6874 44.4742 22.5C44.4742 15.3126 41.1338 8.93748 36 4.81238C39.7729 1.81244 44.5359 0 49.7318 0C62.0411 0 71.9997 10.125 71.9997 22.5Z" fill="#F79E1B"/>
</svg>
