<svg width="28" height="24" viewBox="0 0 28 24" fill="none" xmlns="http://www.w3.org/2000/svg">
<path d="M16.338 9.93489C16.2271 9.93413 16.1204 9.97765 16.0412 10.0559C15.962 10.1342 15.9167 10.2409 15.9152 10.3528V13.4757C15.9167 13.5878 15.9622 13.6947 16.0417 13.773C16.1212 13.8514 16.2282 13.8947 16.3394 13.8936H25.6676C25.7788 13.8947 25.8858 13.8514 25.9653 13.773C26.0448 13.6947 26.0903 13.5878 26.0918 13.4757V10.3528C26.0903 10.2407 26.0448 10.1338 25.9653 10.0554C25.8858 9.9771 25.7788 9.93375 25.6676 9.93489H16.338ZM22.0584 0.00141187C23.3492 0.0635314 24.2774 0.32048 24.8654 0.865438C25.4464 1.40475 25.7446 2.18548 25.8034 3.21892V6.17948C25.8004 6.43161 25.6984 6.67224 25.5196 6.84854C25.3409 7.02484 25.1 7.12238 24.85 7.11974C24.7261 7.12123 24.6031 7.0981 24.488 7.05165C24.373 7.0052 24.2681 6.93636 24.1795 6.84904C24.0908 6.76173 24.0201 6.65766 23.9713 6.54278C23.9225 6.42789 23.8967 6.30444 23.8952 6.17948L23.8966 3.27257C23.8658 2.73608 23.7384 2.4029 23.5564 2.23348C23.38 2.06971 22.8424 1.92288 22.0122 1.88053H3.7058C2.954 1.90876 2.4654 2.05277 2.2288 2.25748C2.0468 2.41419 1.9096 2.8462 1.9082 3.59305L1.904 20.21C1.974 20.9357 2.1322 21.4199 2.3352 21.6614C2.4892 21.8449 2.9666 22.0284 3.6694 22.1188H22.0318C22.8914 22.1357 23.3982 22.0058 23.569 21.8322C23.758 21.6388 23.8952 21.1305 23.8952 20.299V17.4118C23.8952 16.8937 24.3222 16.4716 24.85 16.4716C25.3764 16.4716 25.8034 16.8937 25.8034 17.4118V20.299C25.8034 21.5696 25.5458 22.5197 24.9424 23.1367C24.3208 23.772 23.3324 24.0261 22.0122 23.9979L3.556 23.9937C2.3002 23.8468 1.4 23.4995 0.8638 22.86C0.378 22.2811 0.1078 21.4552 0 20.3004V3.59164C0.0028 2.35489 0.2968 1.42451 0.9716 0.842849C1.5904 0.306362 2.4836 0.0451778 3.6694 0L22.0584 0.00141187ZM25.6676 8.05436C26.9556 8.05436 28 9.08357 28 10.3528V13.4757C28 14.7449 26.9556 15.7741 25.6676 15.7741H16.3394C15.0514 15.7741 14.007 14.7435 14.007 13.4757V10.3528C14.007 9.08357 15.0514 8.05436 16.3394 8.05436H25.6676ZM18.6718 10.7933C18.0278 10.7933 17.5056 11.3015 17.5056 11.9269C17.5056 12.5524 18.0278 13.0606 18.6718 13.0606C19.3158 13.0606 19.838 12.5524 19.838 11.9269C19.838 11.3015 19.3158 10.7919 18.6718 10.7919" fill="#8A8888"/>
</svg>
