<svg width="135" height="67" viewBox="0 0 135 67" fill="none" xmlns="http://www.w3.org/2000/svg">
<rect width="135" height="67" rx="3" fill="white"/>
<g clip-path="url(#clip0_6_329)">
<path d="M81.629 11.8919C79.343 9.26245 75.2106 8.13513 69.924 8.13513H54.5808C54.0578 8.13505 53.5518 8.32333 53.154 8.6661C52.7562 9.00887 52.4927 9.48364 52.4108 10.005L46.0222 50.8936C45.8952 51.6999 46.5139 52.43 47.3237 52.43H56.796L59.1749 37.203L59.1011 37.6798C59.2706 36.6035 60.1828 35.8096 61.2629 35.8096H65.7642C74.6068 35.8096 81.5307 32.1851 83.5533 21.7002C83.6133 21.3901 83.6654 21.0883 83.7103 20.7934C83.455 20.657 83.455 20.657 83.7103 20.7934C84.3126 16.9181 83.7062 14.2802 81.629 11.8919Z" fill="#27346A"/>
<path d="M62.7994 19.3974C63.0583 19.2728 63.3416 19.2083 63.6284 19.2086H75.6571C77.0815 19.2086 78.4101 19.3022 79.6242 19.4994C79.9639 19.5541 80.3018 19.6193 80.6376 19.6951C81.1134 19.801 81.5837 19.9307 82.0469 20.0836C82.6437 20.2848 83.1996 20.5191 83.7105 20.7934C84.3126 16.9166 83.7062 14.2802 81.629 11.8919C79.3416 9.26245 75.2106 8.13513 69.924 8.13513H54.5795C53.4992 8.13513 52.5801 8.92884 52.4108 10.005L46.0222 50.8921C45.8952 51.6997 46.5139 52.4288 47.3224 52.4288H56.796L61.7315 20.8444C61.7801 20.534 61.9026 20.2401 62.0887 19.988C62.2747 19.736 62.5186 19.5333 62.7994 19.3974Z" fill="#27346A"/>
<path d="M83.5534 21.7001C81.5308 32.1836 74.6071 35.8096 65.7643 35.8096H61.2617C60.1815 35.8096 59.2692 36.6034 59.1014 37.6798L56.1418 56.6127C56.0313 57.3183 56.572 57.9577 57.2794 57.9577H65.2644C65.7218 57.9576 66.1641 57.7928 66.5119 57.493C66.8596 57.1931 67.0899 56.7779 67.1614 56.322L67.2392 55.9114L68.7441 46.2862L68.8411 45.7543C68.9126 45.2984 69.1429 44.8832 69.4906 44.5833C69.8383 44.2835 70.2806 44.1187 70.738 44.1185H71.933C79.6681 44.1185 85.7248 40.9473 87.4947 31.7758C88.2334 27.943 87.8512 24.743 85.8969 22.4953C85.3041 21.8145 84.568 21.2523 83.7104 20.7933C83.664 21.0897 83.6136 21.39 83.5534 21.7001Z" fill="#2790C3"/>
<path d="M81.5937 19.9418C81.2783 19.8489 80.96 19.7666 80.6392 19.6951C80.3033 19.6206 79.9653 19.5557 79.6258 19.5007C78.4104 19.3022 77.0828 19.2085 75.6571 19.2085H63.6298C63.3428 19.208 63.0594 19.273 62.8008 19.3987C62.5197 19.5341 62.2754 19.7367 62.0893 19.9888C61.9032 20.241 61.7808 20.5351 61.7328 20.8458L59.1764 37.203L59.1025 37.6799C59.2707 36.6035 60.1829 35.8097 61.2632 35.8097H65.7658C74.6084 35.8097 81.5322 32.1852 83.5547 21.7002C83.615 21.3901 83.6655 21.0896 83.7119 20.7934C83.1998 20.5208 82.6453 20.2847 82.0483 20.085C81.8977 20.0346 81.7462 19.9868 81.5939 19.9418" fill="#1F264F"/>
</g>
<defs>
<clipPath id="clip0_6_329">
<rect width="42" height="50" fill="white" transform="translate(46 8)"/>
</clipPath>
</defs>
</svg>
