<svg width="119" height="35" viewBox="0 0 119 35" fill="none" xmlns="http://www.w3.org/2000/svg">
<path d="M62.0136 0C56.4854 0 52 7.73106 52 17.2724C52 27.4171 56.2906 35 62.0136 35C67.5939 35 72 27.3164 72 17.4717C72 7.68525 67.6234 0 62.0136 0Z" fill="url(#paint0_linear_6_338)"/>
<path d="M5.44134 0.753116H0V34.1469H5.41291C8.28492 34.1469 10.3619 32.9497 12.184 30.2939C14.3458 27.1392 15.6278 22.3823 15.6278 17.466C15.6278 7.607 11.4419 0.753116 5.44134 0.753116ZM9.76869 25.8339C8.59878 27.691 7.09241 28.4938 4.69852 28.4938H3.70406V6.40784H4.69852C7.09241 6.40784 8.54099 7.15972 9.76869 9.11036C11.049 11.1135 11.8126 14.2153 11.8126 17.4184C11.8126 20.6285 11.049 23.8386 9.76869 25.8339ZM17.3367 34.1469H21.0349V0.753116H17.3371L17.3367 34.1469ZM30.0885 13.5626C27.8659 12.1138 27.2118 11.1582 27.2118 9.36209C27.2118 7.2573 28.3764 5.65636 29.9727 5.65636C31.0825 5.65636 31.9931 6.45703 32.9635 8.35397L34.8963 3.90456C33.3026 1.44597 31.3963 0.195966 29.3168 0.195966C25.962 0.195966 23.3987 4.30387 23.3987 9.75648C23.3987 14.367 24.5931 16.7182 28.0663 18.9271C29.5183 19.8237 30.2565 20.4219 30.6274 20.8306C31.3672 21.6821 31.7389 22.8796 31.7389 24.2805C31.7389 26.9888 30.514 28.9886 28.861 28.9886C27.0963 28.9886 25.6749 27.4381 24.8207 24.5343L22.4329 28.5946C24.1371 32.9948 26.1866 34.9541 29.0069 34.9541C32.8487 34.9541 35.5506 30.4415 35.5506 23.9841C35.5506 18.6754 34.3017 16.2701 30.0885 13.5626ZM36.717 17.4664C36.717 27.2913 41.1012 34.9004 46.7376 34.9004C48.3311 34.9004 49.6969 34.3461 51.3778 32.9493V25.2841C49.8959 27.8907 48.5864 28.9394 46.9065 28.9394C43.1794 28.9394 40.5308 24.1813 40.5308 17.4184C40.5308 11.0122 43.2621 5.954 46.7376 5.954C48.4993 5.954 49.8391 7.05477 51.3778 9.70851V2.04411C49.7557 0.596917 48.4159 0 46.8221 0C41.2144 0 36.717 7.76279 36.717 17.4664ZM81.3727 23.1846L76.3065 0.753116H72.2648L80.322 35H82.3126L90.5104 0.752706H86.4987L81.3727 23.1846ZM92.1934 34.1473H102.694V28.4938H95.8925V19.474H102.433V13.8197H95.8925V6.40743H102.694V0.753526H92.1931L92.1934 34.1473ZM117.347 10.6084C117.347 4.35266 114.903 0.753116 110.631 0.753116H105.138V34.1469H108.841V20.7256H109.326L114.446 34.1469H119L113.019 20.0808C115.813 19.0755 117.347 15.7191 117.347 10.6084ZM109.918 16.1233H108.841V6.00443H109.978C112.288 6.00443 113.54 7.71195 113.54 10.9618C113.54 14.3141 112.288 16.1233 109.918 16.1233Z" fill="#0B1015"/>
<defs>
<linearGradient id="paint0_linear_6_338" x1="440.28" y1="317.205" x2="2560.96" y2="1568.42" gradientUnits="userSpaceOnUse">
<stop stop-color="#F34F26"/>
<stop offset="1" stop-color="#F69E35"/>
</linearGradient>
</defs>
</svg>
