<svg width="112" height="56" viewBox="0 0 112 56" fill="none" xmlns="http://www.w3.org/2000/svg">
<path d="M112 44.711C112 50.9332 104.195 56 94.6111 56H0V11.289C0 5.06677 7.80456 0 17.3889 0H112V44.711Z" fill="white"/>
<path d="M81.1929 33.2444H88.381C88.5866 33.2444 89.0657 33.2001 89.2713 33.2001C90.6407 33.0223 91.8044 32.2222 91.8044 31.1111C91.8044 30.0446 90.6407 29.2445 89.2713 29.0224C89.0657 28.9778 88.6553 28.9778 88.3814 28.9778H81.1933L81.1929 33.2444Z" fill="url(#paint0_linear_6_351)"/>
<path d="M87.56 3.77759C80.714 3.77759 75.1 7.37792 75.1 11.8667V20.2668H92.6945C93.1053 20.2668 93.5844 20.2668 93.9265 20.3111C97.8972 20.4446 100.841 21.7778 100.841 24.0887C100.841 25.911 98.8558 27.4666 95.1589 27.7779V27.8665C99.1979 28.0443 102.279 29.511 102.279 31.7776C102.279 34.2222 98.8558 35.8221 94.3373 35.8221H75.0317V52.2668H93.3105C100.156 52.2668 105.77 48.6667 105.77 44.1777V3.77759H87.56Z" fill="url(#paint1_linear_6_351)"/>
<path d="M90.9141 24.6224C90.9141 23.5556 89.7504 22.8444 88.381 22.7109C88.2445 22.7109 87.9019 22.6666 87.6967 22.6666H81.1929V26.5777H87.6967C87.9024 26.5777 88.3127 26.5777 88.3814 26.5334C89.7508 26.3999 90.9146 25.689 90.9146 24.6222" fill="url(#paint2_linear_6_351)"/>
<path d="M18.6896 3.77759C11.8436 3.77759 6.22963 7.37792 6.22963 11.8667V31.8225C9.72131 32.9333 13.3495 33.6445 16.9781 33.6445C21.291 33.6445 23.6185 31.9557 23.6185 29.6445V20.2222H34.2983V29.5999C34.2983 33.2443 30.8071 36.2223 18.9635 36.2223C11.7754 36.2223 6.16138 35.1998 6.16138 35.1998V52.2222H24.4401C31.2861 52.2222 36.9001 48.6221 36.9001 44.1331V3.77816L18.6896 3.77759Z" fill="url(#paint3_linear_6_351)"/>
<path d="M53.1248 3.77759C46.2788 3.77759 40.6648 7.37792 40.6648 11.8667V22.4444C43.8144 20.711 49.291 19.5999 58.1224 19.8666C62.846 20.0001 67.9119 20.8445 67.9119 20.8445V24.2668C65.3787 23.4224 62.367 22.6666 58.4645 22.4888C51.7554 22.1777 47.7164 24.3111 47.7164 28.0443C47.7164 31.8222 51.7554 33.9555 58.4645 33.5999C62.367 33.4221 65.3792 32.6223 67.9119 31.8222V35.2444C67.9119 35.2444 62.9143 36.0888 58.1224 36.2223C49.291 36.4888 43.8144 35.3776 40.6652 33.6445V52.3111H58.944C65.79 52.3111 71.4035 48.711 71.4035 44.222V3.77816L53.1248 3.77759Z" fill="url(#paint4_linear_6_351)"/>
<defs>
<linearGradient id="paint0_linear_6_351" x1="-529.259" y1="242.84" x2="2547.22" y2="242.84" gradientUnits="userSpaceOnUse">
<stop stop-color="#007940"/>
<stop offset="0.2285" stop-color="#00873F"/>
<stop offset="0.7433" stop-color="#40A737"/>
<stop offset="1" stop-color="#5CB531"/>
</linearGradient>
<linearGradient id="paint1_linear_6_351" x1="80.6569" y1="2426.3" x2="3157.3" y2="2426.3" gradientUnits="userSpaceOnUse">
<stop stop-color="#007940"/>
<stop offset="0.2285" stop-color="#00873F"/>
<stop offset="0.7433" stop-color="#40A737"/>
<stop offset="1" stop-color="#5CB531"/>
</linearGradient>
<linearGradient id="paint2_linear_6_351" x1="-529.348" y1="217.664" x2="2547.3" y2="217.664" gradientUnits="userSpaceOnUse">
<stop stop-color="#007940"/>
<stop offset="0.2285" stop-color="#00873F"/>
<stop offset="0.7433" stop-color="#40A737"/>
<stop offset="1" stop-color="#5CB531"/>
</linearGradient>
<linearGradient id="paint3_linear_6_351" x1="11.5714" y1="2426.3" x2="3135.61" y2="2426.3" gradientUnits="userSpaceOnUse">
<stop stop-color="#1F286F"/>
<stop offset="0.4751" stop-color="#004E94"/>
<stop offset="0.8261" stop-color="#0066B1"/>
<stop offset="1" stop-color="#006FBC"/>
</linearGradient>
<linearGradient id="paint4_linear_6_351" x1="22.9593" y1="2426.28" x2="3057.15" y2="2426.28" gradientUnits="userSpaceOnUse">
<stop stop-color="#6C2C2F"/>
<stop offset="0.1735" stop-color="#882730"/>
<stop offset="0.5731" stop-color="#BE1833"/>
<stop offset="0.8585" stop-color="#DC0436"/>
<stop offset="1" stop-color="#E60039"/>
</linearGradient>
</defs>
</svg>
