<svg width="115" height="38" viewBox="0 0 115 38" fill="none" xmlns="http://www.w3.org/2000/svg">
<path d="M59.4752 12.0996C59.4096 17.372 64.0855 20.314 67.6079 22.0634C71.2268 23.8581 72.4424 25.0091 72.428 26.6142C72.401 29.0705 69.5413 30.1546 66.8653 30.1967C62.1966 30.2705 59.482 28.9121 57.3239 27.8847L55.642 35.9054C57.8073 36.9223 61.8165 37.8091 65.9741 37.848C75.7333 37.848 82.1181 32.9382 82.1527 25.3259C82.1909 15.6647 69.0409 15.13 69.1307 10.8117C69.1617 9.50231 70.3876 8.10501 73.074 7.74973C74.4037 7.57026 78.0742 7.43291 82.2358 9.38602L83.8691 1.62578C81.6311 0.795273 78.7548 1.90735e-05 75.1736 1.90735e-05C65.988 1.90735e-05 59.5273 4.97664 59.4752 12.0996ZM99.5639 0.668453C97.7819 0.668453 96.2802 1.72787 95.6099 3.35363L81.6693 37.278H91.4214L93.362 31.812H105.279L106.405 37.278H115L107.499 0.668453H99.5639ZM100.928 10.5581L103.743 24.3054H96.0349L100.928 10.5581ZM47.6513 0.668907L39.9643 37.2776H49.2573L56.9407 0.667995L47.6513 0.668907ZM33.9039 0.668907L24.2313 25.5864L20.3186 4.39932C19.8595 2.03416 18.0465 0.668453 16.0331 0.668453H0.221465L0 1.73154C3.24605 2.44941 6.93414 3.60727 9.16855 4.84616C10.536 5.60296 10.9259 6.26452 11.3751 8.06289L18.7859 37.278H28.6063L43.6623 0.668453L33.9039 0.668907Z" fill="url(#paint0_linear_6_328)"/>
<defs>
<linearGradient id="paint0_linear_6_328" x1="5287.01" y1="113.771" x2="5398.66" y2="-3773.15" gradientUnits="userSpaceOnUse">
<stop stop-color="#222357"/>
<stop offset="1" stop-color="#254AA5"/>
</linearGradient>
</defs>
</svg>
